<svg xmlns="http://www.w3.org/2000/svg" viewBox="0 0 1440 760" role="img" aria-label="school yard arena background">
  <defs>
    <linearGradient id="sky" x1="0" y1="0" x2="0" y2="1">
      <stop offset="0" stop-color="#9ddcf0"/>
      <stop offset=".62" stop-color="#d9f4ef"/>
      <stop offset="1" stop-color="#f8eec9"/>
    </linearGradient>
    <filter id="rough">
      <feTurbulence type="fractalNoise" baseFrequency=".018" numOctaves="3" seed="8"/>
      <feDisplacementMap in="SourceGraphic" scale="2"/>
    </filter>
  </defs>
  <rect width="1440" height="760" fill="url(#sky)"/>
  <g filter="url(#rough)" opacity=".9">
    <path d="M0 578 C180 534 295 592 468 548 C625 508 785 545 940 520 C1125 488 1260 520 1440 486 L1440 760 L0 760Z" fill="#83c875"/>
    <path d="M0 625 C160 608 304 642 468 614 C688 576 836 628 1055 592 C1210 566 1318 584 1440 560 L1440 760 L0 760Z" fill="#58aa6e"/>
  </g>
  <g stroke="#4d6b57" stroke-width="5" stroke-linecap="round" fill="none" opacity=".55">
    <path d="M88 210 C108 138 158 116 205 72"/>
    <path d="M86 210 C58 153 78 105 102 58"/>
    <path d="M1212 196 C1230 129 1283 93 1352 60"/>
    <path d="M1215 198 C1184 139 1192 89 1225 42"/>
  </g>
  <g fill="#5f8d54" opacity=".86">
    <circle cx="95" cy="92" r="54"/>
    <circle cx="157" cy="82" r="66"/>
    <circle cx="213" cy="115" r="52"/>
    <circle cx="1215" cy="78" r="66"/>
    <circle cx="1285" cy="82" r="58"/>
    <circle cx="1350" cy="116" r="68"/>
  </g>
  <g opacity=".72">
    <rect x="486" y="284" width="470" height="150" rx="8" fill="#e5c98f" stroke="#74563a" stroke-width="6"/>
    <path d="M516 320 H926 M516 362 H926 M516 404 H926" stroke="#876646" stroke-width="7" stroke-linecap="round"/>
    <rect x="520" y="430" width="28" height="105" fill="#74563a"/>
    <rect x="890" y="430" width="28" height="105" fill="#74563a"/>
  </g>
  <g fill="#fff5d8" stroke="#775f47" stroke-width="5" opacity=".78">
    <path d="M1048 376 h92 l-28 88 h-92z"/>
    <path d="M1082 325 h108 l-50 54 h-112z"/>
    <rect x="1070" y="386" width="126" height="92" rx="6"/>
  </g>
  <g stroke="#44654d" stroke-width="4" stroke-linecap="round" opacity=".65">
    <path d="M202 648 c26 -26 60 -26 88 0"/>
    <path d="M230 650 c10 -58 32 -96 72 -112"/>
    <path d="M1122 642 c24 -30 63 -32 96 -5"/>
    <path d="M1157 646 c2 -58 24 -99 62 -122"/>
  </g>
  <g fill="#f5d36b" opacity=".75">
    <circle cx="320" cy="575" r="7"/>
    <circle cx="1015" cy="538" r="8"/>
    <circle cx="1185" cy="606" r="6"/>
    <circle cx="222" cy="518" r="5"/>
  </g>
</svg>
